<svg width="516.59pt" height="143.68pt" version="1.1" viewBox="0 0 516.59 143.68" xmlns="http://www.w3.org/2000/svg">
	<g transform="translate(-349.73 -320.94)" fill="#e2e2e4">
		<path d="m381.08 321.44c2.05 0.02 4.12 0.08 6.18 0.11-0.02 7.82-0.01 15.65-0.01 23.48-0.08 3.01 0.81 6.59 3.81 7.95 4.63 2.19 12.12 0.92 13.01-5 0.72-8.8 0.08-17.67 0.33-26.49 2.02 0 4.06 0.01 6.1 0.02-0.03 8.48 0.08 16.98-0.04 25.46-0.13 5.44-4.25 10.3-9.53 11.47-5.24 1.12-11.41 0.99-15.68-2.65-3.16-2.61-4.36-6.85-4.25-10.82 0.03-7.84-0.09-15.68 0.08-23.53z"/>
		<path d="m463.41 321.57c5.72-1.2 12.4-0.94 17.08 2.98 4.23 3.49 5.84 9.18 5.91 14.49 0.2 5.68-1.03 11.93-5.4 15.92-5.44 4.88-13.86 5.09-20.38 2.5-7.35-3.22-9.68-12.03-9.08-19.39-0.01-7.26 4.35-14.96 11.87-16.5m2 4.97c-4.15 1.12-6.57 5.31-7.04 9.37-0.53 4.8-0.57 10.19 2.35 14.3 2.77 3.85 8.28 4.45 12.51 3.03 3.84-1.33 5.85-5.39 6.33-9.2 0.6-4.79 0.5-10.16-2.34-14.28-2.61-3.68-7.73-4.3-11.81-3.22z"/>
		<path d="m526.83 321.6c7.05-0.25 14.1-0.02 21.15-0.12-0.01 1.68-0.01 3.36-0.01 5.04-4.99-0.03-9.98-0.02-14.97-0.01-0.01 3.32-0.01 6.65 0 9.98 4.66 0.01 9.32 0.01 13.98-0.01-0.01 1.68-0.02 3.36-0.02 5.05-4.65-0.05-9.31-0.03-13.96-0.02-0.01 3.99-0.01 7.98 0 11.98 4.99 0.01 9.98 0.03 14.97-0.02-0.01 1.7-0.03 3.4-0.08 5.11-6.97-0.15-13.95-0.07-20.91-0.05-0.27-12.3 0.01-24.62-0.15-36.93z"/>
		<path d="m564.82 320.99c2.27-0.01 4.55 0.02 6.83 0.07 4.52 12.51 9.23 24.95 13.81 37.43-2.21 0.01-4.41 0.01-6.61 0.01-1.26-3.49-2.48-7-3.72-10.49-4.67-0.02-9.34-0.01-14-0.01-1.24 3.5-2.43 7.02-3.69 10.51-2.17-0.01-4.35-0.02-6.52-0.02 4.63-12.5 9.25-25 13.9-37.5m-1.92 22c3.53 0.01 7.07 0.01 10.62 0.01-1.75-5.41-3.76-10.73-5.3-16.21-1.56 5.47-3.52 10.81-5.32 16.2z"/>
		<path d="m352.39 358.51c-0.02-12.34-0.03-24.68 0.01-37.02 7.03 0.02 14.06-0.01 21.1 0.01-0.01 1.66 0 3.32 0.01 4.99-5.01 0.03-10.01 0-15 0.02-0.01 3.32-0.01 6.65 0 9.98 4.66 0.02 9.33-0.01 13.99 0.02v4.98c-4.66 0.03-9.33 0-13.99 0.02-0.01 3.99-0.01 7.99 0 11.98 5 0.02 10-0.01 15 0.02-0.01 1.66-0.02 3.32-0.01 4.99-7.04 0.01-14.07-0.01-21.11 0.01z"/>
		<path d="m419.88 321.51c6.32 0.34 12.98-1.01 19.04 1.33 5.62 2.08 7.04 9.64 4.32 14.49-1.26 2.26-3.62 3.48-5.77 4.71 3.44 5.5 6.93 10.97 10.37 16.47-2.36-0.01-4.72-0.01-7.08-0.01-2.99-4.98-5.94-10-8.91-14.99-1.95-0.01-3.9-0.01-5.85-0.01-0.03 5.01 0.05 10.01-0.05 15.02-1.98-0.01-3.95 0-5.91 0.04-0.38-12.34-0.07-24.7-0.16-37.05m6.13 4.97c-0.02 4.01-0.02 8.02-0.01 12.04 2.93-0.09 5.96 0.19 8.77-0.79 4.46-1.42 4.68-9.1 0.08-10.46-2.85-0.94-5.9-0.7-8.84-0.79z"/>
		<path d="m494.39 358.51c-0.03-12.34-0.02-24.68 0-37.02 6.22 0.37 12.74-0.97 18.7 1.29 7.26 2.82 7.87 13.89 2.28 18.62-4.14 3.41-9.81 3.19-14.86 3.11-0.02 4.66 0 9.32-0.01 13.98-2.04 0.01-4.08 0.01-6.11 0.02m6.12-32.03c-0.01 4.35-0.02 8.7 0 13.06 2.98-0.14 6.12 0.1 8.94-1.1 4.26-1.83 4.4-9.09 0.15-11.01-2.87-1.19-6.07-0.83-9.09-0.95z"/>
		<path d="m590.39 358.51c-0.02-12.34-0.04-24.68 0.01-37.03 2.49 0.01 4.98 0.02 7.48 0.04 6.05 9.57 11.78 19.36 18.05 28.79-0.31-9.6-0.14-19.2-0.18-28.81h5.62c0.01 12.33 0 24.66 0.01 36.99-2.55 0.02-5.09 0.02-7.63-0.02-6.05-9.87-12.22-19.68-18.26-29.55 0.84 9.83 0.4 19.71 0.51 29.57-1.87 0.01-3.75 0.01-5.61 0.02z"/>
		<path d="m356.05 378c6.55-5.57 16.26-4.78 23.71-1.56-1.05 2.61-2.08 5.24-3.07 7.88-3.52-1.39-7.43-3.08-11.24-1.79-3.95 1.74-4.94 6.58-4.96 10.47-0.01 3.71 0.69 8.33 4.39 10.17 4.35 1.83 9.09-0.03 13.24-1.57 0 2.83 0 5.67 0.01 8.51-5.4 2.05-11.48 2.61-17.09 1.09-5.39-1.44-9.3-6.32-10.33-11.69-1.49-7.39-0.68-16.26 5.34-21.51z"/>
		<path d="m455.06 374.46c7.3 0.04 14.6 0.1 21.9-0.03 0.19 2.68 0.22 5.37 0.15 8.06-3.99 0.02-7.98 0.01-11.97 0-0.01 2-0.01 4.01 0 6.02 3.7-0.02 7.4-0.02 11.11 0v7.98c-3.71 0.02-7.41 0.01-11.11 0-0.02 2.34-0.02 4.68 0 7.02 3.99-0.02 7.98-0.02 11.98 0 0 2.64 0 5.28 0.03 7.93-7.36 0.17-14.71-0.04-22.06 0.11-0.17-12.36-0.11-24.72-0.03-37.09z"/>
		<path d="m522.71 375.82c6.48-3.12 14.34-2.11 20.69 0.87-1.07 2.57-2.1 5.16-3.13 7.74-3.48-1.37-7.21-2.91-11.02-2.14-1.39 0.38-2.47 2.34-1.1 3.43 3.97 3.27 9.66 3.96 13.1 8 4.08 5.14 2.09 13.75-3.93 16.49-6.27 2.9-13.82 2.27-20.08-0.35 0.01-3 0.01-6-0.01-9 4.3 1.85 8.94 3.61 13.7 2.87 1.87-0.3 3.11-2.82 1.55-4.22-3.36-2.56-7.72-3.4-11.05-6.03-5.74-4.18-5.3-14.52 1.28-17.66z"/>
		<path d="m548.97 374.56c7.34-0.17 14.67 0.04 22.01-0.12 0.17 2.68 0.2 5.36 0.13 8.05-3.99 0.02-7.98 0.01-11.97 0-0.02 2-0.02 4.01 0 6.02 3.7-0.02 7.4-0.02 11.11 0v7.98c-3.71 0.02-7.41 0.01-11.11 0-0.02 2.34-0.02 4.67 0 7.02 3.99-0.02 7.98-0.02 11.98 0 0.03 2.67 0.01 5.34-0.08 8.02-7.34-0.05-14.67-0.04-22-0.01-0.1-12.32 0.02-24.64-0.07-36.96z"/>
		<path d="m589.65 374.45c5.53-1.16 11.28-0.23 16.47 1.86-0.81 2.74-1.9 5.39-3 8.03-3.55-1.49-7.63-3.19-11.46-1.69-3.72 1.9-4.64 6.53-4.67 10.34-0.04 3.8 0.76 8.61 4.68 10.31 4.31 1.61 8.87-0.22 12.97-1.67-0.03 2.78-0.03 5.57 0.04 8.35-5.28 2.29-11.35 2.64-16.92 1.29-5.33-1.36-9.34-6.04-10.45-11.34-1.24-5.89-1.13-12.41 1.85-17.77 2.17-3.93 6.12-6.75 10.49-7.71z"/>
		<path d="m633.06 374.47c3.37 0.04 6.75-0.07 10.13 0.16-0.18 7.79 0.04 15.59-0.11 23.38-0.07 4.64-2.22 9.48-6.39 11.81-4.78 2.72-10.71 2.69-15.92 1.43-5.51-1.38-9.33-6.72-9.44-12.31-0.13-8.16-0.16-16.34 0.03-24.51 3.37 0.08 6.75 0.08 10.14 0.07 0.02 7.52-0.02 15.03 0 22.55-0.03 2.36 0.59 5.21 2.94 6.32 2.22 0.9 5.23 0.85 6.99-0.99 1.44-1.76 1.49-4.17 1.57-6.34 0.05-7.19-0.08-14.38 0.06-21.57z"/>
		<path d="m701.7 374.6c9.42-0.25 18.84-0.01 28.27-0.12 0.03 2.68 0.03 5.36 0 8.04-3-0.02-5.98-0.03-8.97-0.01-0.01 9.66 0 19.32 0 28.99-3.42 0.01-6.84 0-10.24-0.01-0.03-9.66 0-19.33-0.02-28.99-3 0-5.99 0-8.98-0.01-0.01-2.63-0.02-5.26-0.06-7.89z"/>
		<path d="m755.18 374.46c3.63 0.06 7.27 0.04 10.91 0.03-3.93 7.6-8.3 14.98-12.09 22.64-0.33 4.78-0.01 9.58-0.14 14.38-3.42-0.01-6.83 0-10.24-0.03-0.1-4.69 0.2-9.39-0.11-14.07-3.78-7.75-8.14-15.22-12.08-22.9 3.67-0.02 7.34 0 11.01-0.04 2.17 4.48 4.21 9.03 6.32 13.55 2.16-4.51 4.16-9.1 6.42-13.56z"/>
		<path d="m380.92 374.51c3.69-0.02 7.38-0.02 11.07 0 2.13 4.47 4.09 9.02 6.34 13.44 2.07-4.5 4.14-9.01 6.29-13.47 3.66 0.02 7.33 0.01 10.99 0.02-3.94 7.44-8.12 14.77-11.97 22.26-0.68 4.84-0.05 9.83-0.27 14.73-3.41 0.02-6.82 0.01-10.23 0.02-0.2-4.79 0.31-9.62-0.24-14.37-3.81-7.63-8.06-15.05-11.98-22.63z"/>
		<path d="m420 374.5c5.32 0.03 10.64-0.09 15.96 0.05 3.53 0.23 7.44 0.86 10.03 3.5 3.75 4.26 2 12.23-3.73 13.82 6.84 1.43 8.33 10.69 4.06 15.44-2.81 3.15-7.22 4.23-11.3 4.2-5.01 0-10.01-0.01-15.02-0.01v-37m10.13 7.44c-0.01 2.2-0.01 4.41 0 6.62 1.91-0.17 3.92 0.07 5.74-0.68 1.97-0.88 2.32-4.05 0.37-5.15-1.91-0.87-4.08-0.61-6.11-0.79m0 14.01c-0.01 2.69-0.01 5.39 0 8.09 1.86-0.09 3.77 0.03 5.61-0.42 3.09-0.75 3.4-5.8 0.49-7.01-1.93-0.77-4.07-0.52-6.1-0.66z"/>
		<path d="m483.5 374.5c7.78 0.57 16.45-1.7 23.49 2.6 6.36 4.54 4.48 15.13-2.29 18.38 3.58 5.33 7.17 10.66 10.71 16.01-3.85 0.02-7.7 0.01-11.54 0.01-2.73-4.41-5.07-9.08-7.97-13.38-0.56-0.06-1.7-0.18-2.27-0.24-0.03 4.54 0.01 9.08-0.02 13.63-3.37-0.01-6.74-0.01-10.11-0.01-0.01-12.34-0.01-24.67 0-37m10.13 7.41c-0.02 2.89-0.02 5.79 0.01 8.69 1.67-0.23 3.48-0.09 5.04-0.87 2.58-1.42 2.77-6.17-0.25-7.2-1.55-0.5-3.21-0.45-4.8-0.62z"/>
		<path d="m651 374.5c7.86 0.59 16.7-1.78 23.72 2.77 6.14 4.7 4.12 15-2.55 18.24 3.65 5.27 7.17 10.64 10.73 15.98-3.89 0.01-7.77 0.05-11.64-0.05-2.47-4.49-5.19-8.83-7.64-13.32-0.62-0.04-1.87-0.12-2.49-0.17-0.01 4.52 0 9.03-0.01 13.54-3.38 0.02-6.75 0.02-10.12 0.01v-37m10.13 7.42c-0.01 2.88-0.02 5.77 0 8.66 1.56-0.19 3.2-0.08 4.7-0.68 2.75-1.14 3.26-5.8 0.5-7.2-1.63-0.72-3.48-0.58-5.2-0.78z"/>
		<path d="m686.5 374.5c3.37-0.01 6.73-0.01 10.1-0.01 0.04 12.34 0.03 24.68 0 37.02-3.37-0.01-6.73-0.01-10.09-0.01-0.02-12.33-0.02-24.66-0.01-37z"/>
		<path d="m355.3 428.27c6.47-3.13 14.17-1.89 20.59 0.77-1.02 2.64-2.06 5.27-3.1 7.9-3.41-1.35-7.02-2.82-10.76-2.22-1.62 0.24-2.75 2.34-1.35 3.53 3.62 2.95 8.57 3.75 12.05 6.93 3.34 2.85 3.86 7.95 2.34 11.88-1.58 4.15-5.87 6.6-10.1 7.22-5.14 0.64-10.51 0.26-15.24-1.97 0.02-2.99 0.02-5.98 0.02-8.96 4.4 1.88 9.33 3.89 14.17 2.68 1.98-0.44 2.42-3.52 0.58-4.42-3.54-2.31-7.86-3.28-11.1-6.08-5.24-4.42-4.53-14.28 1.9-17.26z"/>
		<path d="m381.47 427.05c3.39-0.07 6.77-0.07 10.16-0.03 0 5.14-0.05 10.28 0.04 15.42 3.6-5.09 7.13-10.23 10.61-15.39 3.75-0.08 7.49-0.06 11.24-0.04-3.87 5.56-7.88 11.04-11.69 16.65 3.86 6.75 7.66 13.54 11.48 20.32-3.82 0.03-7.63 0-11.44 0.04-2.51-4.64-4.9-9.35-7.32-14.05-0.98 0.58-1.96 1.17-2.93 1.76 0 4.08 0 8.16 0.01 12.25-3.39 0.04-6.77 0.04-10.16-0.03 0.04-12.3 0.04-24.6 0-36.9z"/>
		<path d="m417.48 427.04c3.38-0.06 6.77-0.06 10.16-0.02-0.01 12.31-0.05 24.61 0.02 36.92-3.41 0.09-6.81 0.1-10.22-0.03 0.11-12.29 0.05-24.58 0.04-36.87z"/>
		<path d="m435.49 427.03c3.38-0.05 6.77-0.05 10.16 0.01-0.05 9.65-0.02 19.3-0.02 28.96 4.75 0.01 9.49-0.01 14.25 0.01-0.01 2.66-0.01 5.32 0 7.98-8.14-0.01-16.27 0.06-24.4-0.03 0.04-12.31 0.02-24.62 0.01-36.93z"/>
		<path d="m466 427c3.37-0.01 6.74-0.01 10.12 0.01 0.01 9.66 0 19.32 0 28.98 4.75 0.02 9.5 0 14.25 0.02 0.01 2.66 0.01 5.32 0 7.99h-24.37v-37z"/>
		<path d="m499.43 428.48c6.51-3.41 14.42-2.13 20.96 0.55-1.02 2.61-2.04 5.22-3.02 7.86-3.8-1.2-8.2-3.53-12.06-1.56-0.22 0.42-0.67 1.27-0.89 1.69 2.54 3.98 8.01 4.3 11.55 7.16 6.36 3.92 5.59 14.43-0.74 18.01-6.33 3.59-14.35 2.8-20.92 0.25-0.07-3.04-0.08-6.07-0.07-9.1 4.27 1.9 8.94 3.61 13.69 2.9 2.1-0.27 3.13-3.28 1.25-4.5-3.44-2.36-7.7-3.28-10.95-5.93-5.44-4.19-5.07-14.09 1.2-17.33z"/>
		<path d="m540.88 427.01c7-0.02 14-0.02 21 0-0.01 1.65-0.01 3.31 0 4.98-4.96 0.02-9.92 0-14.88 0.01-0.01 3.83-0.01 7.66 0 11.49 4.65 0.01 9.3 0.03 13.96-0.02v5.07c-4.66-0.06-9.31-0.04-13.96-0.03-0.01 5.16 0 10.32 0 15.49-2.05 0-4.09-0.01-6.12 0-0.01-12.33-0.01-24.66 0-36.99z"/>
		<path d="m568.36 427.02c6.41 0.33 13.18-1.07 19.3 1.42 5.2 2.09 6.57 8.92 4.47 13.68-1.18 2.64-3.78 4.11-6.18 5.46 3.51 5.44 6.91 10.95 10.41 16.41-2.38 0.01-4.75 0.01-7.12 0.01-2.94-4.86-5.7-9.83-8.74-14.63-1.8-0.85-4.05-0.19-5.99-0.37-0.01 4.99-0.02 9.98 0.01 14.97-2.07 0.02-4.13 0.01-6.19-0.04 0.1-12.3 0.03-24.61 0.03-36.91m6.15 4.95c-0.02 4.02-0.02 8.04 0 12.06 2.91-0.12 5.96 0.19 8.76-0.81 4.19-1.34 4.71-8.35 0.69-10.19-2.97-1.3-6.31-0.9-9.45-1.06z"/>
		<path d="m596.92 464c4.63-12.49 9.24-25 13.89-37.49 2.21 0 4.42-0.03 6.63-0.09 4.86 12.46 9.33 25.06 14.02 37.57-2.21 0-4.42 0.01-6.62 0.01-1.24-3.5-2.47-7-3.71-10.49-4.68-0.01-9.35-0.02-14.02 0-1.19 3.45-2.43 6.89-3.52 10.38-2.23 0.1-4.45 0.13-6.67 0.11m17.25-31.64c-1.44 5.49-3.65 10.72-5.15 16.19 3.49-0.06 6.99-0.07 10.49-0.06-1.76-5.38-3.68-10.71-5.34-16.13z"/>
		<path d="m636.36 427.02c2.89-0.03 5.78-0.03 8.68-0.02 3.52 9.72 6.63 19.59 10.4 29.21 3.46-9.75 7-19.47 10.51-29.21 2.9-0.02 5.79-0.01 8.7 0.04-0.05 12.31-0.03 24.63-0.01 36.94-1.97 0.01-3.94 0.01-5.89 0.02-0.03-10.19 0.01-20.38 0.09-30.57-3.53 10.24-7.31 20.39-10.96 30.58-1.86-0.01-3.71-0.03-5.56-0.04-3.57-10.34-7.14-20.67-10.81-30.96 0.73 10.31 0.43 20.66 0.49 31-1.89-0.02-3.77-0.03-5.65-0.05 0.05-12.31 0.03-24.62 0.01-36.94z"/>
		<path d="m684.88 427.01c7.04-0.02 14.08-0.01 21.12-0.01-0.01 1.66-0.01 3.33 0 5-5 0-10-0.01-15 0-0.01 3.33-0.01 6.66 0 10 4.66 0 9.33-0.01 14 0-0.01 1.66-0.01 3.33 0 5-4.67 0-9.33-0.01-14 0-0.01 4-0.01 8 0 12 5 0.01 10-0.01 15 0-0.01 1.66-0.01 3.33 0 5-7.04 0-14.08 0-21.12-0.01-0.01-12.33-0.01-24.65 0-36.98z"/>
		<path d="m709.24 426.99c2.11-0.01 4.24 0.02 6.36 0.05 2.22 9.9 5.21 19.63 6.87 29.65 2.12-10.01 5.31-19.74 7.87-29.64 2.09-0.05 4.19-0.05 6.29-0.01 2.57 9.97 6.04 19.7 7.96 29.83 1.76-10.05 4.78-19.82 6.92-29.79 2.12-0.07 4.25-0.1 6.38-0.09-3.21 12.22-6.3 24.49-9.63 36.68-2.04 0.8-4.61 0.15-6.84 0.27-2.52-9.75-5.89-19.28-7.86-29.16-2.23 9.82-5.31 19.42-7.86 29.16-2.27 0.05-4.55 0.07-6.81 0.06-3.17-12.35-6.43-24.68-9.65-37.01z"/>
		<path d="m773.15 427.13c5.91-1.31 12.88-1.03 17.63 3.17 4.15 3.62 5.61 9.35 5.63 14.68 0.14 5.67-1.24 11.89-5.71 15.75-4.5 3.96-10.99 4.37-16.63 3.35-5.19-0.94-9.6-4.88-11.24-9.87-1.77-5.41-1.79-11.38-0.23-16.83 1.44-4.95 5.5-9.04 10.55-10.25m1.23 5.28c-4.85 2.03-6.34 7.78-6.29 12.57-0.13 4.86 0.89 10.81 5.63 13.3 4.24 1.98 10.19 1.6 13.28-2.27 2.44-3.1 2.86-7.25 2.86-11.06-0.12-3.69-0.72-7.72-3.34-10.53-3.04-3.23-8.19-3.46-12.14-2.01z"/>
		<path d="m804.36 427.02c6.4 0.33 13.17-1.07 19.28 1.42 5.21 2.08 6.59 8.89 4.5 13.64-1.16 2.63-3.71 4.15-6.15 5.39 3.35 5.57 6.9 11.01 10.36 16.52-2.38 0.01-4.75 0.01-7.11 0-3.03-5.01-5.87-10.14-9.04-15.06-1.91 0.04-3.81 0.07-5.69 0.09-0.01 4.98-0.02 9.96 0.01 14.95-2.06 0.01-4.11 0.02-6.15 0.02 0.01-12.32 0.02-24.64-0.01-36.97m6.15 4.95c-0.02 4.02-0.02 8.04 0 12.06 2.92-0.13 5.97 0.19 8.78-0.81 4.46-1.45 4.64-9.16-0.01-10.47-2.82-0.92-5.85-0.67-8.77-0.78z"/>
		<path d="m837.88 427h6.12c0 5.81-0.01 11.63 0 17.45 4.94-5.83 9.9-11.64 14.85-17.46 2.36 0.01 4.72 0 7.1 0.01-4.6 5.45-9.27 10.83-13.93 16.23 4.76 6.92 9.55 13.83 14.3 20.77h-7.2c-3.92-5.52-7.7-11.13-11.66-16.62-1.16 0.94-2.3 1.89-3.44 2.84-0.04 4.59-0.01 9.18-0.02 13.78-2.05 0-4.09-0.01-6.12 0-0.01-12.34-0.01-24.67 0-37z"/>
	</g>
</svg>
